<svg width="72" height="72" viewBox="0 0 72 72" fill="none" xmlns="http://www.w3.org/2000/svg">
<path d="M56.4295 38.9947C56.078 38.6426 55.6605 38.3632 55.2009 38.1726C54.7413 37.982 54.2487 37.8839 53.7511 37.8839C53.2536 37.8839 52.7609 37.982 52.3013 38.1726C51.8417 38.3632 51.4242 38.6426 51.0727 38.9947L45.034 45.0334C42.2344 44.1999 37.0102 42.3057 33.6992 38.9947C30.3881 35.6836 28.4939 30.4594 27.6605 27.6598L33.6992 21.6211C34.0513 21.2696 34.3306 20.8521 34.5212 20.3925C34.7118 19.9329 34.8099 19.4403 34.8099 18.9427C34.8099 18.4452 34.7118 17.9525 34.5212 17.4929C34.3306 17.0333 34.0513 16.6159 33.6992 16.2643L18.5456 1.11076C18.1941 0.758646 17.7766 0.479298 17.317 0.288701C16.8574 0.0981045 16.3647 0 15.8672 0C15.3696 0 14.877 0.0981045 14.4174 0.288701C13.9578 0.479298 13.5403 0.758646 13.1888 1.11076L2.91467 11.3849C1.47508 12.8245 0.664361 14.802 0.694668 16.8212C0.781801 22.2159 2.21003 40.9533 16.9772 55.7204C31.7443 70.4876 50.4817 71.912 55.8802 72.003H55.9863C57.9865 72.003 59.877 71.215 61.309 69.783L71.5831 59.5088C71.9352 59.1573 72.2146 58.7398 72.4052 58.2802C72.5957 57.8207 72.6938 57.328 72.6938 56.8304C72.6938 56.3329 72.5957 55.8402 72.4052 55.3807C72.2146 54.9211 71.9352 54.5036 71.5831 54.1521L56.4295 38.9947ZM55.9484 64.4224C51.2205 64.3428 35.044 63.0737 22.334 50.3599C9.58224 37.6081 8.34722 21.3749 8.27146 16.7417L15.8672 9.14594L25.664 18.9427L20.7656 23.8411C20.3203 24.2861 19.9929 24.835 19.813 25.4382C19.6331 26.0414 19.6063 26.68 19.7351 27.2961C19.8261 27.7318 22.0498 38.0627 28.3386 44.3515C34.6273 50.6402 44.9583 52.864 45.3939 52.9549C46.0097 53.0874 46.6489 53.0627 47.2527 52.8833C47.8565 52.7039 48.4054 52.3755 48.8489 51.9283L53.7511 47.0299L63.5479 56.8267L55.9484 64.4224Z" fill="#0D5C63"/>
</svg>
